<?xml version="1.0" encoding="UTF-8"?>
<svg xmlns="http://www.w3.org/2000/svg" xmlns:xlink="http://www.w3.org/1999/xlink" width="854" height="480" viewBox="0 0 854 480">
<defs>
<g>
<g id="glyph-0-0">
<path d="M 2.824219 -1.691406 L 6.921875 -1.691406 L 6.921875 0 L 0.75 0 L 0.75 -1.640625 L 1.789062 -2.746094 C 3.027344 -4.0625 3.777344 -4.871094 4.042969 -5.175781 C 4.367188 -5.550781 4.601562 -5.878906 4.746094 -6.167969 C 4.890625 -6.457031 4.960938 -6.742188 4.960938 -7.023438 C 4.960938 -7.457031 4.828125 -7.792969 4.566406 -8.03125 C 4.304688 -8.265625 3.933594 -8.386719 3.449219 -8.386719 C 3.105469 -8.386719 2.722656 -8.316406 2.292969 -8.179688 C 1.867188 -8.042969 1.421875 -7.84375 0.957031 -7.585938 L 0.957031 -9.375 C 1.421875 -9.542969 1.875 -9.671875 2.320312 -9.761719 C 2.765625 -9.851562 3.191406 -9.894531 3.601562 -9.894531 C 4.628906 -9.894531 5.4375 -9.65625 6.023438 -9.175781 C 6.613281 -8.695312 6.90625 -8.042969 6.90625 -7.214844 C 6.90625 -6.832031 6.84375 -6.472656 6.714844 -6.140625 C 6.585938 -5.804688 6.367188 -5.433594 6.054688 -5.027344 C 5.824219 -4.730469 5.191406 -4.066406 4.160156 -3.035156 C 3.601562 -2.472656 3.15625 -2.027344 2.824219 -1.691406 Z "/>
</g>
<g id="glyph-0-1">
<path d="M 4.011719 -4.335938 C 3.582031 -4.335938 3.234375 -4.199219 2.96875 -3.929688 C 2.703125 -3.65625 2.570312 -3.296875 2.570312 -2.851562 C 2.570312 -2.40625 2.703125 -2.042969 2.96875 -1.769531 C 3.234375 -1.496094 3.582031 -1.359375 4.011719 -1.359375 C 4.441406 -1.359375 4.789062 -1.5 5.054688 -1.777344 C 5.320312 -2.054688 5.457031 -2.414062 5.457031 -2.851562 C 5.457031 -3.296875 5.324219 -3.65625 5.058594 -3.929688 C 4.792969 -4.199219 4.445312 -4.335938 4.011719 -4.335938 Z M 2.585938 -5.148438 C 2.09375 -5.320312 1.722656 -5.585938 1.464844 -5.945312 C 1.207031 -6.308594 1.082031 -6.753906 1.082031 -7.277344 C 1.082031 -8.085938 1.34375 -8.722656 1.867188 -9.191406 C 2.394531 -9.660156 3.109375 -9.894531 4.011719 -9.894531 C 4.917969 -9.894531 5.632812 -9.660156 6.160156 -9.191406 C 6.683594 -8.722656 6.945312 -8.085938 6.945312 -7.277344 C 6.945312 -6.757812 6.820312 -6.316406 6.570312 -5.953125 C 6.316406 -5.589844 5.949219 -5.324219 5.46875 -5.148438 C 6.007812 -4.984375 6.429688 -4.691406 6.730469 -4.265625 C 7.035156 -3.839844 7.1875 -3.328125 7.1875 -2.734375 C 7.1875 -1.800781 6.910156 -1.082031 6.359375 -0.574219 C 5.808594 -0.0664062 5.027344 0.1875 4.011719 0.1875 C 3 0.1875 2.21875 -0.0664062 1.667969 -0.574219 C 1.117188 -1.082031 0.839844 -1.800781 0.839844 -2.734375 C 0.839844 -3.332031 0.992188 -3.84375 1.300781 -4.269531 C 1.609375 -4.695312 2.039062 -4.988281 2.585938 -5.148438 Z M 2.785156 -7.121094 C 2.785156 -6.738281 2.894531 -6.4375 3.113281 -6.214844 C 3.332031 -5.992188 3.632812 -5.878906 4.011719 -5.878906 C 4.394531 -5.878906 4.691406 -5.992188 4.910156 -6.214844 C 5.128906 -6.4375 5.242188 -6.742188 5.242188 -7.121094 C 5.242188 -7.5 5.132812 -7.796875 4.910156 -8.015625 C 4.691406 -8.234375 4.390625 -8.347656 4.011719 -8.347656 C 3.636719 -8.347656 3.339844 -8.234375 3.117188 -8.015625 C 2.898438 -7.792969 2.785156 -7.496094 2.785156 -7.121094 Z "/>
</g>
</g>
</defs>
<g fill="rgb(96.078431%, 61.960784%, 4.313725%)" fill-opacity="1">
<use xlink:href="#glyph-0-0" x="30" y="32.375977"/>
<use xlink:href="#glyph-0-1" x="38" y="32.375977"/>
</g>
</svg>
