<?xml version="1.0" encoding="UTF-8"?>
<svg xmlns="http://www.w3.org/2000/svg" xmlns:xlink="http://www.w3.org/1999/xlink" width="854" height="480" viewBox="0 0 854 480">
<defs>
<g>
<g id="glyph-0-0">
<path d="M 0.660156 -0.414062 L 1.425781 -0.414062 L 1.425781 -3.167969 L 0.507812 -2.726562 L 0.507812 -3.199219 L 1.421875 -3.632812 L 1.914062 -3.632812 L 1.914062 -0.414062 L 2.671875 -0.414062 L 2.671875 0 L 0.660156 0 Z "/>
</g>
<g id="glyph-0-1">
<path d="M 1.078125 -0.882812 L 1.839844 -0.882812 L 1.839844 -0.234375 L 1.296875 0.816406 L 0.8125 0.820312 L 1.078125 -0.234375 Z "/>
</g>
<g id="glyph-0-2">
<path d="M 1.503906 -3.699219 C 1.894531 -3.699219 2.1875 -3.539062 2.386719 -3.222656 C 2.585938 -2.90625 2.6875 -2.4375 2.6875 -1.8125 C 2.6875 -1.191406 2.585938 -0.722656 2.386719 -0.40625 C 2.1875 -0.0898438 1.894531 0.0703125 1.503906 0.0703125 C 1.113281 0.0703125 0.820312 -0.0859375 0.621094 -0.40625 C 0.421875 -0.722656 0.324219 -1.191406 0.324219 -1.8125 C 0.324219 -2.433594 0.425781 -2.90625 0.621094 -3.222656 C 0.820312 -3.539062 1.113281 -3.699219 1.503906 -3.699219 Z M 1.503906 -0.320312 C 1.734375 -0.320312 1.90625 -0.441406 2.019531 -0.6875 C 2.132812 -0.933594 2.191406 -1.308594 2.191406 -1.8125 C 2.191406 -2.082031 2.171875 -2.324219 2.140625 -2.542969 L 0.980469 -0.722656 C 1.101562 -0.453125 1.277344 -0.320312 1.503906 -0.320312 Z M 1.503906 -3.308594 C 1.273438 -3.308594 1.101562 -3.183594 0.988281 -2.9375 C 0.875 -2.691406 0.820312 -2.320312 0.820312 -1.8125 C 0.820312 -1.585938 0.835938 -1.371094 0.867188 -1.167969 L 2.003906 -2.984375 C 1.878906 -3.199219 1.714844 -3.308594 1.503906 -3.308594 Z "/>
</g>
<g id="glyph-0-3">
<rect x="0" y="0" width="0" height="0" mask="url(#mask-0)"/>
</g>
<g id="glyph-0-4">
<path d="M 0.972656 -3.238281 L 0.972656 -1.871094 L 1.546875 -1.871094 C 1.773438 -1.871094 1.949219 -1.929688 2.078125 -2.050781 C 2.207031 -2.171875 2.269531 -2.339844 2.269531 -2.554688 C 2.269531 -2.773438 2.207031 -2.941406 2.078125 -3.058594 C 1.953125 -3.179688 1.773438 -3.238281 1.546875 -3.238281 Z M 0.480469 -3.644531 L 1.546875 -3.644531 C 1.953125 -3.644531 2.261719 -3.550781 2.46875 -3.367188 C 2.679688 -3.183594 2.785156 -2.914062 2.785156 -2.554688 C 2.785156 -2.195312 2.679688 -1.925781 2.472656 -1.742188 C 2.261719 -1.558594 1.953125 -1.464844 1.546875 -1.464844 L 0.972656 -1.464844 L 0.972656 0 L 0.480469 0 Z "/>
</g>
<g id="glyph-0-5">
<path d="M 1.714844 -1.375 L 1.566406 -1.375 C 1.304688 -1.375 1.105469 -1.328125 0.972656 -1.238281 C 0.839844 -1.144531 0.773438 -1.007812 0.773438 -0.824219 C 0.773438 -0.660156 0.824219 -0.53125 0.921875 -0.441406 C 1.023438 -0.351562 1.160156 -0.304688 1.335938 -0.304688 C 1.582031 -0.304688 1.777344 -0.390625 1.917969 -0.5625 C 2.058594 -0.734375 2.132812 -0.972656 2.132812 -1.273438 L 2.132812 -1.375 Z M 2.585938 -1.558594 L 2.585938 0 L 2.132812 0 L 2.132812 -0.40625 C 2.039062 -0.242188 1.917969 -0.121094 1.769531 -0.046875 C 1.625 0.03125 1.449219 0.0703125 1.242188 0.0703125 C 0.960938 0.0703125 0.738281 -0.0078125 0.574219 -0.164062 C 0.40625 -0.320312 0.324219 -0.53125 0.324219 -0.796875 C 0.324219 -1.101562 0.425781 -1.332031 0.632812 -1.488281 C 0.835938 -1.648438 1.136719 -1.726562 1.53125 -1.726562 L 2.132812 -1.726562 L 2.132812 -1.796875 C 2.132812 -2.015625 2.078125 -2.171875 1.96875 -2.273438 C 1.859375 -2.371094 1.683594 -2.417969 1.445312 -2.417969 C 1.292969 -2.417969 1.136719 -2.398438 0.980469 -2.351562 C 0.824219 -2.308594 0.671875 -2.246094 0.523438 -2.160156 L 0.523438 -2.609375 C 0.691406 -2.671875 0.851562 -2.722656 1.003906 -2.753906 C 1.15625 -2.785156 1.300781 -2.800781 1.445312 -2.800781 C 1.671875 -2.800781 1.863281 -2.765625 2.023438 -2.699219 C 2.183594 -2.632812 2.316406 -2.535156 2.414062 -2.398438 C 2.476562 -2.316406 2.519531 -2.21875 2.546875 -2.097656 C 2.574219 -1.976562 2.585938 -1.800781 2.585938 -1.558594 Z "/>
</g>
<g id="glyph-0-6">
<path d="M 1.5 -3.511719 L 1.5 -2.734375 L 2.519531 -2.734375 L 2.519531 -2.386719 L 1.5 -2.386719 L 1.5 -0.902344 C 1.5 -0.699219 1.539062 -0.558594 1.613281 -0.476562 C 1.691406 -0.398438 1.824219 -0.359375 2.015625 -0.359375 L 2.519531 -0.359375 L 2.519531 0 L 1.96875 0 C 1.632812 0 1.394531 -0.0664062 1.257812 -0.203125 C 1.117188 -0.335938 1.050781 -0.570312 1.050781 -0.902344 L 1.050781 -2.386719 L 0.320312 -2.386719 L 0.320312 -2.734375 L 1.050781 -2.734375 L 1.050781 -3.511719 Z "/>
</g>
<g id="glyph-0-7">
<path d="M 0.773438 -2.726562 L 1.921875 -2.726562 L 1.921875 -0.347656 L 2.8125 -0.347656 L 2.8125 0 L 0.582031 0 L 0.582031 -0.347656 L 1.472656 -0.347656 L 1.472656 -2.375 L 0.773438 -2.375 Z M 1.472656 -3.785156 L 1.921875 -3.785156 L 1.921875 -3.21875 L 1.472656 -3.21875 Z "/>
</g>
<g id="glyph-0-8">
<path d="M 2.734375 -1.59375 L 2.734375 -1.371094 L 0.789062 -1.371094 L 0.789062 -1.359375 C 0.777344 -0.984375 0.847656 -0.71875 1.003906 -0.554688 C 1.15625 -0.390625 1.375 -0.308594 1.660156 -0.308594 C 1.804688 -0.308594 1.953125 -0.332031 2.109375 -0.378906 C 2.265625 -0.425781 2.433594 -0.492188 2.609375 -0.585938 L 2.609375 -0.140625 C 2.4375 -0.0703125 2.273438 -0.015625 2.117188 0.0195312 C 1.957031 0.0546875 1.804688 0.0703125 1.65625 0.0703125 C 1.230469 0.0703125 0.898438 -0.0546875 0.660156 -0.3125 C 0.421875 -0.566406 0.300781 -0.917969 0.300781 -1.363281 C 0.300781 -1.800781 0.417969 -2.148438 0.652344 -2.410156 C 0.886719 -2.671875 1.199219 -2.800781 1.589844 -2.800781 C 1.9375 -2.800781 2.210938 -2.683594 2.414062 -2.445312 C 2.613281 -2.210938 2.722656 -1.925781 2.734375 -1.59375 Z M 2.285156 -1.722656 C 2.265625 -1.914062 2.195312 -2.074219 2.078125 -2.214844 C 1.960938 -2.351562 1.792969 -2.417969 1.570312 -2.417969 C 1.351562 -2.417969 1.175781 -2.347656 1.035156 -2.203125 C 0.894531 -2.0625 0.820312 -1.898438 0.804688 -1.722656 Z "/>
</g>
<g id="glyph-0-9">
<path d="M 2.566406 -1.695312 L 2.566406 0 L 2.113281 0 L 2.113281 -1.695312 C 2.113281 -1.941406 2.070312 -2.121094 1.984375 -2.234375 C 1.898438 -2.351562 1.761719 -2.410156 1.578125 -2.410156 C 1.367188 -2.410156 1.207031 -2.335938 1.09375 -2.1875 C 0.980469 -2.039062 0.925781 -1.824219 0.925781 -1.546875 L 0.925781 0 L 0.476562 0 L 0.476562 -2.734375 L 0.925781 -2.734375 L 0.925781 -2.324219 C 1.003906 -2.480469 1.113281 -2.597656 1.25 -2.679688 C 1.386719 -2.761719 1.546875 -2.800781 1.734375 -2.800781 C 2.015625 -2.800781 2.222656 -2.707031 2.359375 -2.527344 C 2.496094 -2.34375 2.566406 -2.066406 2.566406 -1.695312 Z "/>
</g>
<g id="glyph-0-10">
<path d="M 2.375 -2.640625 L 2.375 -2.199219 C 2.246094 -2.273438 2.117188 -2.332031 1.988281 -2.367188 C 1.859375 -2.40625 1.722656 -2.425781 1.589844 -2.425781 C 1.386719 -2.425781 1.234375 -2.390625 1.132812 -2.324219 C 1.035156 -2.257812 0.984375 -2.160156 0.984375 -2.023438 C 0.984375 -1.902344 1.019531 -1.8125 1.097656 -1.75 C 1.171875 -1.691406 1.359375 -1.632812 1.65625 -1.574219 L 1.835938 -1.539062 C 2.058594 -1.496094 2.226562 -1.414062 2.34375 -1.285156 C 2.457031 -1.160156 2.515625 -0.996094 2.515625 -0.789062 C 2.515625 -0.519531 2.417969 -0.308594 2.226562 -0.15625 C 2.035156 -0.00390625 1.765625 0.0703125 1.425781 0.0703125 C 1.289062 0.0703125 1.148438 0.0546875 1 0.0273438 C 0.851562 0 0.691406 -0.0429688 0.519531 -0.101562 L 0.519531 -0.5625 C 0.6875 -0.476562 0.847656 -0.414062 1 -0.371094 C 1.152344 -0.328125 1.296875 -0.304688 1.4375 -0.304688 C 1.632812 -0.304688 1.789062 -0.34375 1.898438 -0.425781 C 2.007812 -0.507812 2.0625 -0.621094 2.0625 -0.765625 C 2.0625 -0.972656 1.859375 -1.117188 1.460938 -1.195312 L 1.441406 -1.203125 L 1.273438 -1.234375 C 1.015625 -1.285156 0.828125 -1.371094 0.707031 -1.492188 C 0.589844 -1.609375 0.53125 -1.773438 0.53125 -1.980469 C 0.53125 -2.242188 0.617188 -2.445312 0.796875 -2.585938 C 0.972656 -2.730469 1.226562 -2.800781 1.554688 -2.800781 C 1.703125 -2.800781 1.84375 -2.785156 1.976562 -2.761719 C 2.113281 -2.734375 2.246094 -2.691406 2.375 -2.640625 Z "/>
</g>
</g>
<image id="source-240" x="0" y="0" width="0" height="0"/>
<mask id="mask-0">
<use xlink:href="#source-240"/>
</mask>
</defs>
<g fill="rgb(6.27451%, 72.54902%, 50.588235%)" fill-opacity="1">
<use xlink:href="#glyph-0-0" x="30" y="24.641602"/>
<use xlink:href="#glyph-0-1" x="33" y="24.641602"/>
<use xlink:href="#glyph-0-2" x="36" y="24.641602"/>
<use xlink:href="#glyph-0-2" x="39" y="24.641602"/>
<use xlink:href="#glyph-0-2" x="42" y="24.641602"/>
<use xlink:href="#glyph-0-3" x="45" y="24.641602"/>
</g>
<g fill="rgb(6.27451%, 72.54902%, 50.588235%)" fill-opacity="1">
<use xlink:href="#glyph-0-4" x="30" y="32.141602"/>
<use xlink:href="#glyph-0-5" x="33" y="32.141602"/>
<use xlink:href="#glyph-0-6" x="36" y="32.141602"/>
<use xlink:href="#glyph-0-7" x="39" y="32.141602"/>
<use xlink:href="#glyph-0-8" x="42" y="32.141602"/>
<use xlink:href="#glyph-0-9" x="45" y="32.141602"/>
<use xlink:href="#glyph-0-6" x="48" y="32.141602"/>
<use xlink:href="#glyph-0-10" x="51" y="32.141602"/>
</g>
</svg>
