<?xml version="1.0" encoding="UTF-8"?>
<svg xmlns="http://www.w3.org/2000/svg" xmlns:xlink="http://www.w3.org/1999/xlink" width="854" height="480" viewBox="0 0 854 480">
<defs>
<g>
<g id="glyph-0-0">
<path d="M 2.449219 -3.386719 L 6.746094 -3.386719 L 6.746094 -16.003906 L 2.746094 -15.011719 L 2.746094 -18.476562 L 6.769531 -19.441406 L 10.480469 -19.441406 L 10.480469 -3.386719 L 14.777344 -3.386719 L 14.777344 0 L 2.449219 0 Z "/>
</g>
<g id="glyph-0-1">
<path d="M 6.003906 -4.777344 L 10.078125 -4.777344 L 10.078125 -1.25 L 7.527344 3.738281 L 4.714844 3.738281 L 6.003906 -1.25 Z "/>
</g>
<g id="glyph-0-2">
<path d="M 8.019531 -8.671875 C 7.160156 -8.671875 6.46875 -8.402344 5.9375 -7.859375 C 5.40625 -7.316406 5.144531 -6.597656 5.144531 -5.703125 C 5.144531 -4.808594 5.40625 -4.089844 5.9375 -3.542969 C 6.46875 -2.996094 7.160156 -2.722656 8.019531 -2.722656 C 8.878906 -2.722656 9.578125 -3 10.109375 -3.554688 C 10.644531 -4.109375 10.910156 -4.828125 10.910156 -5.703125 C 10.910156 -6.597656 10.648438 -7.316406 10.117188 -7.859375 C 9.585938 -8.402344 8.890625 -8.671875 8.019531 -8.671875 Z M 5.167969 -10.300781 C 4.1875 -10.636719 3.441406 -11.167969 2.929688 -11.894531 C 2.417969 -12.621094 2.160156 -13.507812 2.160156 -14.558594 C 2.160156 -16.171875 2.6875 -17.449219 3.738281 -18.386719 C 4.789062 -19.324219 6.214844 -19.792969 8.019531 -19.792969 C 9.835938 -19.792969 11.265625 -19.324219 12.316406 -18.386719 C 13.367188 -17.449219 13.894531 -16.171875 13.894531 -14.558594 C 13.894531 -13.515625 13.640625 -12.632812 13.136719 -11.90625 C 12.632812 -11.183594 11.902344 -10.648438 10.9375 -10.300781 C 12.015625 -9.96875 12.855469 -9.378906 13.464844 -8.527344 C 14.070312 -7.675781 14.375 -6.65625 14.375 -5.46875 C 14.375 -3.601562 13.824219 -2.160156 12.722656 -1.144531 C 11.621094 -0.128906 10.050781 0.378906 8.019531 0.378906 C 5.996094 0.378906 4.4375 -0.128906 3.332031 -1.144531 C 2.230469 -2.160156 1.679688 -3.601562 1.679688 -5.46875 C 1.679688 -6.667969 1.988281 -7.691406 2.605469 -8.542969 C 3.222656 -9.394531 4.074219 -9.976562 5.167969 -10.300781 Z M 5.574219 -14.246094 C 5.574219 -13.480469 5.792969 -12.875 6.230469 -12.429688 C 6.667969 -11.980469 7.265625 -11.757812 8.019531 -11.757812 C 8.785156 -11.757812 9.386719 -11.980469 9.824219 -12.429688 C 10.261719 -12.875 10.480469 -13.480469 10.480469 -14.246094 C 10.480469 -15 10.261719 -15.597656 9.824219 -16.035156 C 9.386719 -16.472656 8.785156 -16.691406 8.019531 -16.691406 C 7.273438 -16.691406 6.679688 -16.472656 6.238281 -16.027344 C 5.792969 -15.585938 5.574219 -14.992188 5.574219 -14.246094 Z "/>
</g>
<g id="glyph-0-3">
<path d="M 1.601562 -9.699219 C 1.601562 -13.066406 2.136719 -15.59375 3.203125 -17.273438 C 4.269531 -18.953125 5.875 -19.792969 8.019531 -19.792969 C 10.171875 -19.792969 11.785156 -18.953125 12.851562 -17.277344 C 13.917969 -15.601562 14.453125 -13.078125 14.453125 -9.699219 C 14.453125 -6.332031 13.917969 -3.8125 12.851562 -2.136719 C 11.785156 -0.460938 10.171875 0.378906 8.019531 0.378906 C 5.875 0.378906 4.269531 -0.460938 3.203125 -2.140625 C 2.136719 -3.820312 1.601562 -6.339844 1.601562 -9.699219 Z M 6.082031 -4.503906 C 6.488281 -3.417969 7.136719 -2.878906 8.019531 -2.878906 C 8.914062 -2.878906 9.566406 -3.421875 9.972656 -4.503906 C 10.382812 -5.589844 10.585938 -7.320312 10.585938 -9.699219 C 10.585938 -10.601562 10.554688 -11.410156 10.496094 -12.121094 L 5.949219 -4.882812 C 5.992188 -4.742188 6.039062 -4.617188 6.082031 -4.503906 Z M 8.019531 -16.535156 C 7.136719 -16.535156 6.488281 -15.992188 6.082031 -14.910156 C 5.671875 -13.824219 5.46875 -12.085938 5.46875 -9.699219 C 5.46875 -8.960938 5.484375 -8.289062 5.519531 -7.683594 L 10 -14.832031 C 9.992188 -14.855469 9.984375 -14.882812 9.972656 -14.910156 C 9.566406 -15.996094 8.914062 -16.535156 8.019531 -16.535156 Z "/>
</g>
</g>
</defs>
<g fill="rgb(2.352941%, 71.372549%, 83.137255%)" fill-opacity="1">
<use xlink:href="#glyph-0-0" x="30" y="44.75293"/>
<use xlink:href="#glyph-0-1" x="46" y="44.75293"/>
<use xlink:href="#glyph-0-2" x="62" y="44.75293"/>
<use xlink:href="#glyph-0-3" x="78" y="44.75293"/>
<use xlink:href="#glyph-0-0" x="94" y="44.75293"/>
</g>
</svg>
