<?xml version="1.0" encoding="UTF-8"?>
<svg xmlns="http://www.w3.org/2000/svg" xmlns:xlink="http://www.w3.org/1999/xlink" width="854" height="480" viewBox="0 0 854 480">
<defs>
<g>
<g id="glyph-0-0">
<path d="M 1.792969 -3.195312 L 0.644531 -1.269531 L 1.792969 -1.269531 Z M 1.714844 -3.644531 L 2.285156 -3.644531 L 2.285156 -1.269531 L 2.769531 -1.269531 L 2.769531 -0.867188 L 2.285156 -0.867188 L 2.285156 0 L 1.792969 0 L 1.792969 -0.867188 L 0.25 -0.867188 L 0.25 -1.335938 Z "/>
</g>
<g id="glyph-0-1">
<path d="M 1.503906 -3.699219 C 1.894531 -3.699219 2.1875 -3.539062 2.386719 -3.222656 C 2.585938 -2.90625 2.6875 -2.4375 2.6875 -1.8125 C 2.6875 -1.191406 2.585938 -0.722656 2.386719 -0.40625 C 2.1875 -0.0898438 1.894531 0.0703125 1.503906 0.0703125 C 1.113281 0.0703125 0.820312 -0.0859375 0.621094 -0.40625 C 0.421875 -0.722656 0.324219 -1.191406 0.324219 -1.8125 C 0.324219 -2.433594 0.425781 -2.90625 0.621094 -3.222656 C 0.820312 -3.539062 1.113281 -3.699219 1.503906 -3.699219 Z M 1.503906 -0.320312 C 1.734375 -0.320312 1.90625 -0.441406 2.019531 -0.6875 C 2.132812 -0.933594 2.191406 -1.308594 2.191406 -1.8125 C 2.191406 -2.082031 2.171875 -2.324219 2.140625 -2.542969 L 0.980469 -0.722656 C 1.101562 -0.453125 1.277344 -0.320312 1.503906 -0.320312 Z M 1.503906 -3.308594 C 1.273438 -3.308594 1.101562 -3.183594 0.988281 -2.9375 C 0.875 -2.691406 0.820312 -2.320312 0.820312 -1.8125 C 0.820312 -1.585938 0.835938 -1.371094 0.867188 -1.167969 L 2.003906 -2.984375 C 1.878906 -3.199219 1.714844 -3.308594 1.503906 -3.308594 Z "/>
</g>
<g id="glyph-0-2">
<rect x="0" y="0" width="0" height="0" mask="url(#mask-0)"/>
</g>
<g id="glyph-0-3">
<path d="M 1.0625 -0.40625 C 1.480469 -0.40625 1.769531 -0.507812 1.933594 -0.710938 C 2.097656 -0.914062 2.179688 -1.285156 2.179688 -1.820312 C 2.179688 -2.359375 2.097656 -2.730469 1.933594 -2.933594 C 1.769531 -3.136719 1.480469 -3.238281 1.0625 -3.238281 L 0.828125 -3.238281 L 0.828125 -0.40625 Z M 1.074219 -3.644531 C 1.632812 -3.644531 2.039062 -3.496094 2.304688 -3.199219 C 2.570312 -2.902344 2.699219 -2.445312 2.699219 -1.820312 C 2.699219 -1.199219 2.570312 -0.738281 2.304688 -0.441406 C 2.039062 -0.148438 1.632812 0 1.074219 0 L 0.335938 0 L 0.335938 -3.644531 Z "/>
</g>
<g id="glyph-0-4">
<path d="M 1.503906 -2.417969 C 1.277344 -2.417969 1.101562 -2.332031 0.984375 -2.152344 C 0.867188 -1.976562 0.8125 -1.714844 0.8125 -1.363281 C 0.8125 -1.015625 0.867188 -0.753906 0.984375 -0.578125 C 1.101562 -0.398438 1.277344 -0.308594 1.503906 -0.308594 C 1.734375 -0.308594 1.90625 -0.398438 2.023438 -0.578125 C 2.140625 -0.757812 2.199219 -1.019531 2.199219 -1.363281 C 2.199219 -1.710938 2.140625 -1.976562 2.023438 -2.152344 C 1.90625 -2.332031 1.734375 -2.417969 1.503906 -2.417969 Z M 1.503906 -2.800781 C 1.882812 -2.800781 2.171875 -2.675781 2.375 -2.429688 C 2.574219 -2.183594 2.675781 -1.832031 2.675781 -1.363281 C 2.675781 -0.898438 2.574219 -0.542969 2.375 -0.296875 C 2.175781 -0.0507812 1.882812 0.0703125 1.503906 0.0703125 C 1.125 0.0703125 0.835938 -0.0507812 0.632812 -0.296875 C 0.433594 -0.542969 0.335938 -0.898438 0.335938 -1.363281 C 0.335938 -1.828125 0.433594 -2.1875 0.632812 -2.429688 C 0.835938 -2.675781 1.125 -2.800781 1.503906 -2.800781 Z "/>
</g>
<g id="glyph-0-5">
<path d="M 2.589844 -0.140625 C 2.46875 -0.0703125 2.347656 -0.015625 2.21875 0.0195312 C 2.089844 0.0546875 1.960938 0.0703125 1.828125 0.0703125 C 1.402344 0.0703125 1.070312 -0.0546875 0.832031 -0.308594 C 0.59375 -0.5625 0.476562 -0.914062 0.476562 -1.363281 C 0.476562 -1.8125 0.59375 -2.164062 0.832031 -2.417969 C 1.070312 -2.671875 1.402344 -2.800781 1.828125 -2.800781 C 1.957031 -2.800781 2.085938 -2.78125 2.210938 -2.75 C 2.335938 -2.714844 2.464844 -2.660156 2.589844 -2.589844 L 2.589844 -2.117188 C 2.472656 -2.222656 2.351562 -2.300781 2.234375 -2.347656 C 2.113281 -2.394531 1.976562 -2.417969 1.828125 -2.417969 C 1.546875 -2.417969 1.328125 -2.328125 1.175781 -2.144531 C 1.023438 -1.964844 0.949219 -1.703125 0.949219 -1.363281 C 0.949219 -1.027344 1.027344 -0.769531 1.179688 -0.585938 C 1.332031 -0.402344 1.546875 -0.308594 1.828125 -0.308594 C 1.984375 -0.308594 2.121094 -0.335938 2.246094 -0.382812 C 2.371094 -0.429688 2.484375 -0.503906 2.589844 -0.605469 Z "/>
</g>
<g id="glyph-0-6">
<path d="M 1.5 -3.511719 L 1.5 -2.734375 L 2.519531 -2.734375 L 2.519531 -2.386719 L 1.5 -2.386719 L 1.5 -0.902344 C 1.5 -0.699219 1.539062 -0.558594 1.613281 -0.476562 C 1.691406 -0.398438 1.824219 -0.359375 2.015625 -0.359375 L 2.519531 -0.359375 L 2.519531 0 L 1.96875 0 C 1.632812 0 1.394531 -0.0664062 1.257812 -0.203125 C 1.117188 -0.335938 1.050781 -0.570312 1.050781 -0.902344 L 1.050781 -2.386719 L 0.320312 -2.386719 L 0.320312 -2.734375 L 1.050781 -2.734375 L 1.050781 -3.511719 Z "/>
</g>
<g id="glyph-0-7">
<path d="M 2.820312 -2.171875 C 2.722656 -2.246094 2.625 -2.300781 2.527344 -2.335938 C 2.429688 -2.367188 2.320312 -2.386719 2.199219 -2.386719 C 1.917969 -2.386719 1.707031 -2.296875 1.558594 -2.121094 C 1.410156 -1.945312 1.335938 -1.691406 1.335938 -1.359375 L 1.335938 0 L 0.882812 0 L 0.882812 -2.734375 L 1.335938 -2.734375 L 1.335938 -2.199219 C 1.410156 -2.394531 1.527344 -2.542969 1.679688 -2.644531 C 1.835938 -2.75 2.019531 -2.800781 2.234375 -2.800781 C 2.34375 -2.800781 2.449219 -2.785156 2.542969 -2.757812 C 2.640625 -2.730469 2.730469 -2.6875 2.820312 -2.628906 Z "/>
</g>
<g id="glyph-0-8">
<path d="M 2.375 -2.640625 L 2.375 -2.199219 C 2.246094 -2.273438 2.117188 -2.332031 1.988281 -2.367188 C 1.859375 -2.40625 1.722656 -2.425781 1.589844 -2.425781 C 1.386719 -2.425781 1.234375 -2.390625 1.132812 -2.324219 C 1.035156 -2.257812 0.984375 -2.160156 0.984375 -2.023438 C 0.984375 -1.902344 1.019531 -1.8125 1.097656 -1.75 C 1.171875 -1.691406 1.359375 -1.632812 1.65625 -1.574219 L 1.835938 -1.539062 C 2.058594 -1.496094 2.226562 -1.414062 2.34375 -1.285156 C 2.457031 -1.160156 2.515625 -0.996094 2.515625 -0.789062 C 2.515625 -0.519531 2.417969 -0.308594 2.226562 -0.15625 C 2.035156 -0.00390625 1.765625 0.0703125 1.425781 0.0703125 C 1.289062 0.0703125 1.148438 0.0546875 1 0.0273438 C 0.851562 0 0.691406 -0.0429688 0.519531 -0.101562 L 0.519531 -0.5625 C 0.6875 -0.476562 0.847656 -0.414062 1 -0.371094 C 1.152344 -0.328125 1.296875 -0.304688 1.4375 -0.304688 C 1.632812 -0.304688 1.789062 -0.34375 1.898438 -0.425781 C 2.007812 -0.507812 2.0625 -0.621094 2.0625 -0.765625 C 2.0625 -0.972656 1.859375 -1.117188 1.460938 -1.195312 L 1.441406 -1.203125 L 1.273438 -1.234375 C 1.015625 -1.285156 0.828125 -1.371094 0.707031 -1.492188 C 0.589844 -1.609375 0.53125 -1.773438 0.53125 -1.980469 C 0.53125 -2.242188 0.617188 -2.445312 0.796875 -2.585938 C 0.972656 -2.730469 1.226562 -2.800781 1.554688 -2.800781 C 1.703125 -2.800781 1.84375 -2.785156 1.976562 -2.761719 C 2.113281 -2.734375 2.246094 -2.691406 2.375 -2.640625 Z "/>
</g>
</g>
<image id="source-240" x="0" y="0" width="0" height="0"/>
<mask id="mask-0">
<use xlink:href="#source-240"/>
</mask>
</defs>
<g fill="rgb(23.137255%, 50.980392%, 96.470588%)" fill-opacity="1">
<use xlink:href="#glyph-0-0" x="30" y="24.641602"/>
<use xlink:href="#glyph-0-1" x="33" y="24.641602"/>
<use xlink:href="#glyph-0-1" x="36" y="24.641602"/>
<use xlink:href="#glyph-0-2" x="39" y="24.641602"/>
</g>
<g fill="rgb(23.137255%, 50.980392%, 96.470588%)" fill-opacity="1">
<use xlink:href="#glyph-0-3" x="30" y="32.141602"/>
<use xlink:href="#glyph-0-4" x="33" y="32.141602"/>
<use xlink:href="#glyph-0-5" x="36" y="32.141602"/>
<use xlink:href="#glyph-0-6" x="39" y="32.141602"/>
<use xlink:href="#glyph-0-4" x="42" y="32.141602"/>
<use xlink:href="#glyph-0-7" x="45" y="32.141602"/>
<use xlink:href="#glyph-0-8" x="48" y="32.141602"/>
</g>
</svg>
