<?xml version="1.0" encoding="UTF-8"?>
<svg xmlns="http://www.w3.org/2000/svg" xmlns:xlink="http://www.w3.org/1999/xlink" width="854" height="480" viewBox="0 0 854 480">
<defs>
<g>
<g id="glyph-0-0">
<path d="M 2.644531 -0.261719 L 2.644531 -3.761719 C 3.328125 -3.363281 3.988281 -3.070312 4.617188 -2.878906 C 5.246094 -2.6875 5.851562 -2.589844 6.433594 -2.589844 C 7.8125 -2.589844 8.863281 -3.054688 9.589844 -3.976562 C 10.316406 -4.902344 10.699219 -6.285156 10.742188 -8.125 C 10.335938 -7.5625 9.8125 -7.136719 9.179688 -6.855469 C 8.546875 -6.574219 7.796875 -6.433594 6.925781 -6.433594 C 5.183594 -6.433594 3.832031 -6.984375 2.878906 -8.09375 C 1.921875 -9.199219 1.445312 -10.769531 1.445312 -12.800781 C 1.445312 -14.96875 1.980469 -16.648438 3.046875 -17.839844 C 4.113281 -19.027344 5.625 -19.621094 7.578125 -19.621094 C 9.949219 -19.621094 11.667969 -18.832031 12.742188 -17.246094 C 13.8125 -15.660156 14.347656 -13.101562 14.347656 -9.570312 C 14.347656 -6.210938 13.695312 -3.691406 12.382812 -2.011719 C 11.070312 -0.332031 9.105469 0.507812 6.484375 0.507812 C 5.875 0.507812 5.25 0.441406 4.601562 0.3125 C 3.957031 0.183594 3.304688 -0.0078125 2.644531 -0.261719 Z M 7.683594 -9.648438 C 8.507812 -9.648438 9.136719 -9.949219 9.578125 -10.554688 C 10.015625 -11.15625 10.234375 -12.03125 10.234375 -13.175781 C 10.234375 -14.3125 10.015625 -15.183594 9.578125 -15.789062 C 9.140625 -16.390625 8.507812 -16.691406 7.683594 -16.691406 C 6.847656 -16.691406 6.207031 -16.390625 5.761719 -15.789062 C 5.316406 -15.183594 5.089844 -14.3125 5.089844 -13.175781 C 5.089844 -12.039062 5.316406 -11.167969 5.761719 -10.558594 C 6.207031 -9.953125 6.847656 -9.648438 7.683594 -9.648438 Z "/>
</g>
<g id="glyph-0-1">
<path d="M 2.511719 -19.441406 L 13.074219 -19.441406 L 13.074219 -16.054688 L 5.625 -16.054688 L 5.625 -12.449219 C 5.9375 -12.570312 6.273438 -12.660156 6.628906 -12.714844 C 6.984375 -12.769531 7.359375 -12.800781 7.761719 -12.800781 C 9.6875 -12.800781 11.25 -12.191406 12.449219 -10.976562 C 13.644531 -9.761719 14.246094 -8.179688 14.246094 -6.238281 C 14.246094 -4.199219 13.597656 -2.585938 12.296875 -1.398438 C 11 -0.214844 9.230469 0.378906 6.992188 0.378906 C 6.160156 0.378906 5.316406 0.308594 4.464844 0.167969 C 3.613281 0.03125 2.746094 -0.179688 1.863281 -0.457031 L 1.863281 -3.917969 C 2.582031 -3.5625 3.324219 -3.296875 4.082031 -3.117188 C 4.839844 -2.941406 5.601562 -2.851562 6.367188 -2.851562 C 7.722656 -2.851562 8.75 -3.140625 9.453125 -3.71875 C 10.15625 -4.296875 10.507812 -5.132812 10.507812 -6.238281 C 10.507812 -7.253906 10.160156 -8.066406 9.460938 -8.679688 C 8.761719 -9.289062 7.828125 -9.597656 6.667969 -9.597656 C 5.980469 -9.597656 5.292969 -9.511719 4.601562 -9.34375 C 3.914062 -9.171875 3.214844 -8.917969 2.511719 -8.582031 Z "/>
</g>
<g id="glyph-0-2">
<path d="M 0.429688 -14.480469 C 0.429688 -15.644531 0.832031 -16.628906 1.640625 -17.433594 C 2.449219 -18.242188 3.429688 -18.644531 4.582031 -18.644531 C 5.738281 -18.644531 6.722656 -18.242188 7.53125 -17.429688 C 8.34375 -16.617188 8.75 -15.632812 8.75 -14.480469 C 8.75 -13.324219 8.34375 -12.34375 7.53125 -11.535156 C 6.71875 -10.730469 5.738281 -10.324219 4.582031 -10.324219 C 3.429688 -10.324219 2.449219 -10.726562 1.640625 -11.53125 C 0.832031 -12.332031 0.429688 -13.316406 0.429688 -14.480469 Z M 4.582031 -16.261719 C 4.089844 -16.261719 3.667969 -16.089844 3.320312 -15.75 C 2.972656 -15.40625 2.800781 -14.984375 2.800781 -14.480469 C 2.800781 -13.976562 2.972656 -13.550781 3.320312 -13.210938 C 3.667969 -12.867188 4.089844 -12.695312 4.582031 -12.695312 C 5.085938 -12.695312 5.511719 -12.867188 5.851562 -13.210938 C 6.195312 -13.554688 6.367188 -13.976562 6.367188 -14.480469 C 6.367188 -14.972656 6.195312 -15.394531 5.847656 -15.742188 C 5.5 -16.089844 5.078125 -16.261719 4.582031 -16.261719 Z M 1.121094 -7.304688 L 14.6875 -12.746094 L 15.222656 -11.496094 L 1.574219 -6.054688 Z M 7.550781 -4.152344 C 7.550781 -5.316406 7.953125 -6.300781 8.757812 -7.109375 C 9.558594 -7.917969 10.542969 -8.320312 11.707031 -8.320312 C 12.851562 -8.320312 13.832031 -7.914062 14.648438 -7.101562 C 15.464844 -6.289062 15.871094 -5.308594 15.871094 -4.152344 C 15.871094 -3.007812 15.464844 -2.027344 14.648438 -1.21875 C 13.832031 -0.40625 12.851562 0 11.707031 0 C 10.542969 0 9.558594 -0.402344 8.757812 -1.203125 C 7.953125 -2.007812 7.550781 -2.992188 7.550781 -4.152344 Z M 11.679688 -5.949219 C 11.195312 -5.949219 10.777344 -5.777344 10.4375 -5.429688 C 10.09375 -5.082031 9.921875 -4.65625 9.921875 -4.152344 C 9.921875 -3.648438 10.089844 -3.226562 10.429688 -2.882812 C 10.769531 -2.539062 11.183594 -2.371094 11.679688 -2.371094 C 12.183594 -2.371094 12.609375 -2.542969 12.960938 -2.890625 C 13.3125 -3.238281 13.488281 -3.660156 13.488281 -4.152344 C 13.488281 -4.648438 13.3125 -5.070312 12.957031 -5.421875 C 12.601562 -5.773438 12.175781 -5.949219 11.679688 -5.949219 Z "/>
</g>
</g>
</defs>
<g fill="rgb(6.27451%, 72.54902%, 50.588235%)" fill-opacity="1">
<use xlink:href="#glyph-0-0" x="30" y="44.75293"/>
<use xlink:href="#glyph-0-1" x="46" y="44.75293"/>
<use xlink:href="#glyph-0-2" x="62" y="44.75293"/>
</g>
</svg>
