<?xml version="1.0" encoding="UTF-8"?>
<svg xmlns="http://www.w3.org/2000/svg" xmlns:xlink="http://www.w3.org/1999/xlink" width="854" height="480" viewBox="0 0 854 480">
<defs>
<g>
<g id="glyph-0-0">
<path d="M 1.222656 -1.691406 L 3.371094 -1.691406 L 3.371094 -8 L 1.375 -7.507812 L 1.375 -9.238281 L 3.386719 -9.71875 L 5.242188 -9.71875 L 5.242188 -1.691406 L 7.390625 -1.691406 L 7.390625 0 L 1.222656 0 Z "/>
</g>
<g id="glyph-0-1">
<path d="M 3 -2.390625 L 5.039062 -2.390625 L 5.039062 -0.625 L 3.761719 1.867188 L 2.355469 1.867188 L 3 -0.625 Z "/>
</g>
<g id="glyph-0-2">
<path d="M 4.011719 -4.335938 C 3.582031 -4.335938 3.234375 -4.199219 2.96875 -3.929688 C 2.703125 -3.65625 2.570312 -3.296875 2.570312 -2.851562 C 2.570312 -2.40625 2.703125 -2.042969 2.96875 -1.769531 C 3.234375 -1.496094 3.582031 -1.359375 4.011719 -1.359375 C 4.441406 -1.359375 4.789062 -1.5 5.054688 -1.777344 C 5.320312 -2.054688 5.457031 -2.414062 5.457031 -2.851562 C 5.457031 -3.296875 5.324219 -3.65625 5.058594 -3.929688 C 4.792969 -4.199219 4.445312 -4.335938 4.011719 -4.335938 Z M 2.585938 -5.148438 C 2.09375 -5.320312 1.722656 -5.585938 1.464844 -5.945312 C 1.207031 -6.308594 1.082031 -6.753906 1.082031 -7.277344 C 1.082031 -8.085938 1.34375 -8.722656 1.867188 -9.191406 C 2.394531 -9.660156 3.109375 -9.894531 4.011719 -9.894531 C 4.917969 -9.894531 5.632812 -9.660156 6.160156 -9.191406 C 6.683594 -8.722656 6.945312 -8.085938 6.945312 -7.277344 C 6.945312 -6.757812 6.820312 -6.316406 6.570312 -5.953125 C 6.316406 -5.589844 5.949219 -5.324219 5.46875 -5.148438 C 6.007812 -4.984375 6.429688 -4.691406 6.730469 -4.265625 C 7.035156 -3.839844 7.1875 -3.328125 7.1875 -2.734375 C 7.1875 -1.800781 6.910156 -1.082031 6.359375 -0.574219 C 5.808594 -0.0664062 5.027344 0.1875 4.011719 0.1875 C 3 0.1875 2.21875 -0.0664062 1.667969 -0.574219 C 1.117188 -1.082031 0.839844 -1.800781 0.839844 -2.734375 C 0.839844 -3.332031 0.992188 -3.84375 1.300781 -4.269531 C 1.609375 -4.695312 2.039062 -4.988281 2.585938 -5.148438 Z M 2.785156 -7.121094 C 2.785156 -6.738281 2.894531 -6.4375 3.113281 -6.214844 C 3.332031 -5.992188 3.632812 -5.878906 4.011719 -5.878906 C 4.394531 -5.878906 4.691406 -5.992188 4.910156 -6.214844 C 5.128906 -6.4375 5.242188 -6.742188 5.242188 -7.121094 C 5.242188 -7.5 5.132812 -7.796875 4.910156 -8.015625 C 4.691406 -8.234375 4.390625 -8.347656 4.011719 -8.347656 C 3.636719 -8.347656 3.339844 -8.234375 3.117188 -8.015625 C 2.898438 -7.792969 2.785156 -7.496094 2.785156 -7.121094 Z "/>
</g>
<g id="glyph-0-3">
<path d="M 0.800781 -4.851562 C 0.800781 -6.535156 1.066406 -7.796875 1.601562 -8.636719 C 2.136719 -9.476562 2.9375 -9.894531 4.011719 -9.894531 C 5.085938 -9.894531 5.890625 -9.476562 6.425781 -8.640625 C 6.960938 -7.800781 7.226562 -6.539062 7.226562 -4.851562 C 7.226562 -3.167969 6.960938 -1.90625 6.425781 -1.066406 C 5.890625 -0.230469 5.085938 0.1875 4.011719 0.1875 C 2.9375 0.1875 2.136719 -0.230469 1.601562 -1.070312 C 1.066406 -1.910156 0.800781 -3.171875 0.800781 -4.851562 Z M 3.039062 -2.253906 C 3.242188 -1.710938 3.566406 -1.4375 4.011719 -1.4375 C 4.457031 -1.4375 4.78125 -1.710938 4.988281 -2.253906 C 5.191406 -2.796875 5.292969 -3.660156 5.292969 -4.851562 C 5.292969 -5.300781 5.277344 -5.707031 5.246094 -6.0625 L 2.976562 -2.441406 C 2.996094 -2.371094 3.019531 -2.308594 3.039062 -2.253906 Z M 4.011719 -8.269531 C 3.566406 -8.269531 3.246094 -7.996094 3.039062 -7.453125 C 2.835938 -6.910156 2.734375 -6.042969 2.734375 -4.851562 C 2.734375 -4.480469 2.742188 -4.144531 2.761719 -3.839844 L 5 -7.414062 C 4.996094 -7.429688 4.992188 -7.441406 4.988281 -7.453125 C 4.785156 -7.996094 4.457031 -8.269531 4.011719 -8.269531 Z "/>
</g>
</g>
</defs>
<g fill="rgb(2.352941%, 71.372549%, 83.137255%)" fill-opacity="1">
<use xlink:href="#glyph-0-0" x="30" y="32.375977"/>
<use xlink:href="#glyph-0-1" x="38" y="32.375977"/>
<use xlink:href="#glyph-0-2" x="46" y="32.375977"/>
<use xlink:href="#glyph-0-3" x="54" y="32.375977"/>
<use xlink:href="#glyph-0-0" x="62" y="32.375977"/>
</g>
</svg>
