<?xml version="1.0" encoding="UTF-8"?>
<svg xmlns="http://www.w3.org/2000/svg" xmlns:xlink="http://www.w3.org/1999/xlink" width="854" height="480" viewBox="0 0 854 480">
<defs>
<g>
<g id="glyph-0-0">
<path d="M 0.078125 -3.230469 L 0.664062 -3.230469 L 1.222656 -1.585938 L 1.789062 -3.230469 L 2.375 -3.230469 L 2.375 0 L 1.96875 0 L 1.96875 -2.855469 L 1.394531 -1.152344 L 1.0625 -1.152344 L 0.480469 -2.855469 L 0.480469 0 L 0.078125 0 Z "/>
</g>
<g id="glyph-0-1">
<path d="M 1.335938 -2.152344 C 1.132812 -2.152344 0.980469 -2.070312 0.875 -1.914062 C 0.773438 -1.757812 0.71875 -1.523438 0.71875 -1.214844 C 0.71875 -0.90625 0.773438 -0.671875 0.875 -0.511719 C 0.980469 -0.355469 1.132812 -0.277344 1.335938 -0.277344 C 1.539062 -0.277344 1.695312 -0.355469 1.800781 -0.511719 C 1.902344 -0.671875 1.957031 -0.90625 1.957031 -1.214844 C 1.957031 -1.523438 1.902344 -1.757812 1.800781 -1.914062 C 1.695312 -2.070312 1.539062 -2.152344 1.335938 -2.152344 Z M 1.335938 -2.488281 C 1.671875 -2.488281 1.933594 -2.378906 2.109375 -2.160156 C 2.289062 -1.941406 2.378906 -1.625 2.378906 -1.214844 C 2.378906 -0.796875 2.289062 -0.480469 2.113281 -0.261719 C 1.933594 -0.046875 1.675781 0.0625 1.335938 0.0625 C 1 0.0625 0.742188 -0.046875 0.5625 -0.261719 C 0.386719 -0.480469 0.296875 -0.796875 0.296875 -1.214844 C 0.296875 -1.628906 0.386719 -1.941406 0.5625 -2.160156 C 0.742188 -2.378906 1 -2.488281 1.335938 -2.488281 Z "/>
</g>
<g id="glyph-0-2">
<path d="M 2.28125 -1.507812 L 2.28125 0 L 1.878906 0 L 1.878906 -1.507812 C 1.878906 -1.726562 1.839844 -1.886719 1.765625 -1.988281 C 1.6875 -2.089844 1.566406 -2.140625 1.402344 -2.140625 C 1.21875 -2.140625 1.074219 -2.074219 0.972656 -1.941406 C 0.871094 -1.808594 0.824219 -1.621094 0.824219 -1.375 L 0.824219 0 L 0.421875 0 L 0.421875 -2.429688 L 0.824219 -2.429688 L 0.824219 -2.066406 C 0.894531 -2.203125 0.988281 -2.308594 1.109375 -2.382812 C 1.230469 -2.453125 1.375 -2.488281 1.542969 -2.488281 C 1.789062 -2.488281 1.976562 -2.40625 2.097656 -2.246094 C 2.21875 -2.082031 2.28125 -1.835938 2.28125 -1.507812 Z "/>
</g>
<g id="glyph-0-3">
<path d="M 1.332031 -3.121094 L 1.332031 -2.429688 L 2.238281 -2.429688 L 2.238281 -2.121094 L 1.332031 -2.121094 L 1.332031 -0.800781 C 1.332031 -0.621094 1.367188 -0.496094 1.433594 -0.425781 C 1.503906 -0.355469 1.621094 -0.320312 1.789062 -0.320312 L 2.238281 -0.320312 L 2.238281 0 L 1.75 0 C 1.453125 0 1.242188 -0.0585938 1.117188 -0.179688 C 0.996094 -0.300781 0.933594 -0.507812 0.933594 -0.800781 L 0.933594 -2.121094 L 0.285156 -2.121094 L 0.285156 -2.429688 L 0.933594 -2.429688 L 0.933594 -3.121094 Z "/>
</g>
<g id="glyph-0-4">
<path d="M 2.28125 -1.507812 L 2.28125 0 L 1.878906 0 L 1.878906 -1.507812 C 1.878906 -1.726562 1.839844 -1.886719 1.765625 -1.988281 C 1.6875 -2.089844 1.566406 -2.140625 1.402344 -2.140625 C 1.21875 -2.140625 1.074219 -2.074219 0.972656 -1.941406 C 0.871094 -1.808594 0.824219 -1.621094 0.824219 -1.375 L 0.824219 0 L 0.421875 0 L 0.421875 -3.375 L 0.824219 -3.375 L 0.824219 -2.066406 C 0.894531 -2.203125 0.988281 -2.308594 1.109375 -2.382812 C 1.230469 -2.453125 1.375 -2.488281 1.542969 -2.488281 C 1.789062 -2.488281 1.976562 -2.40625 2.097656 -2.246094 C 2.21875 -2.082031 2.28125 -1.835938 2.28125 -1.507812 Z "/>
</g>
<g id="glyph-0-5">
<path d="M 2.113281 -2.347656 L 2.113281 -1.957031 C 1.996094 -2.023438 1.882812 -2.070312 1.765625 -2.105469 C 1.652344 -2.136719 1.53125 -2.15625 1.414062 -2.15625 C 1.230469 -2.15625 1.097656 -2.125 1.007812 -2.066406 C 0.917969 -2.007812 0.875 -1.917969 0.875 -1.800781 C 0.875 -1.691406 0.90625 -1.609375 0.972656 -1.554688 C 1.039062 -1.503906 1.207031 -1.449219 1.472656 -1.398438 L 1.632812 -1.371094 C 1.832031 -1.332031 1.980469 -1.257812 2.082031 -1.144531 C 2.183594 -1.03125 2.234375 -0.882812 2.234375 -0.703125 C 2.234375 -0.464844 2.148438 -0.273438 1.980469 -0.140625 C 1.808594 -0.00390625 1.570312 0.0625 1.265625 0.0625 C 1.148438 0.0625 1.019531 0.0507812 0.890625 0.0234375 C 0.757812 0 0.617188 -0.0390625 0.460938 -0.0898438 L 0.460938 -0.5 C 0.609375 -0.425781 0.753906 -0.367188 0.890625 -0.328125 C 1.027344 -0.289062 1.15625 -0.269531 1.277344 -0.269531 C 1.453125 -0.269531 1.589844 -0.308594 1.6875 -0.378906 C 1.785156 -0.449219 1.832031 -0.550781 1.832031 -0.679688 C 1.832031 -0.863281 1.65625 -0.992188 1.300781 -1.0625 L 1.28125 -1.066406 L 1.132812 -1.097656 C 0.902344 -1.144531 0.734375 -1.21875 0.628906 -1.324219 C 0.523438 -1.429688 0.472656 -1.578125 0.472656 -1.761719 C 0.472656 -1.992188 0.550781 -2.171875 0.707031 -2.300781 C 0.863281 -2.425781 1.089844 -2.488281 1.382812 -2.488281 C 1.511719 -2.488281 1.636719 -2.476562 1.757812 -2.453125 C 1.878906 -2.429688 1.996094 -2.394531 2.113281 -2.347656 Z "/>
</g>
</g>
</defs>
<g fill="rgb(39.215686%, 45.490196%, 54.509804%)" fill-opacity="1">
<use xlink:href="#glyph-0-0" x="30" y="24.125"/>
<use xlink:href="#glyph-0-1" x="33" y="24.125"/>
<use xlink:href="#glyph-0-2" x="36" y="24.125"/>
<use xlink:href="#glyph-0-3" x="39" y="24.125"/>
<use xlink:href="#glyph-0-4" x="42" y="24.125"/>
<use xlink:href="#glyph-0-5" x="45" y="24.125"/>
</g>
</svg>
