<?xml version="1.0" encoding="UTF-8"?>
<svg xmlns="http://www.w3.org/2000/svg" xmlns:xlink="http://www.w3.org/1999/xlink" width="854" height="480" viewBox="0 0 854 480">
<defs>
<g>
<g id="glyph-0-0">
<path d="M 0.230469 -7.289062 L 5.789062 -7.289062 L 5.789062 -6.460938 L 3.511719 -6.460938 L 3.511719 0 L 2.519531 0 L 2.519531 -6.460938 L 0.230469 -6.460938 Z "/>
</g>
<g id="glyph-0-1">
<path d="M 5.132812 -3.390625 L 5.132812 0 L 4.226562 0 L 4.226562 -3.390625 C 4.226562 -3.882812 4.140625 -4.242188 3.96875 -4.472656 C 3.796875 -4.703125 3.527344 -4.820312 3.160156 -4.820312 C 2.738281 -4.820312 2.417969 -4.671875 2.191406 -4.371094 C 1.964844 -4.074219 1.851562 -3.648438 1.851562 -3.089844 L 1.851562 0 L 0.953125 0 L 0.953125 -7.597656 L 1.851562 -7.597656 L 1.851562 -4.648438 C 2.011719 -4.960938 2.226562 -5.199219 2.5 -5.359375 C 2.773438 -5.519531 3.097656 -5.601562 3.472656 -5.601562 C 4.027344 -5.601562 4.445312 -5.417969 4.71875 -5.050781 C 4.992188 -4.683594 5.132812 -4.132812 5.132812 -3.390625 Z "/>
</g>
<g id="glyph-0-2">
<path d="M 5.640625 -4.339844 C 5.449219 -4.492188 5.253906 -4.601562 5.054688 -4.667969 C 4.855469 -4.734375 4.636719 -4.769531 4.398438 -4.769531 C 3.839844 -4.769531 3.410156 -4.59375 3.117188 -4.242188 C 2.820312 -3.890625 2.671875 -3.382812 2.671875 -2.71875 L 2.671875 0 L 1.765625 0 L 1.765625 -5.46875 L 2.671875 -5.46875 L 2.671875 -4.398438 C 2.820312 -4.785156 3.050781 -5.082031 3.363281 -5.289062 C 3.671875 -5.496094 4.042969 -5.601562 4.46875 -5.601562 C 4.6875 -5.601562 4.894531 -5.574219 5.085938 -5.515625 C 5.28125 -5.460938 5.464844 -5.375 5.640625 -5.257812 Z "/>
</g>
<g id="glyph-0-3">
<path d="M 5.46875 -3.183594 L 5.46875 -2.742188 L 1.578125 -2.742188 L 1.578125 -2.714844 C 1.550781 -1.96875 1.695312 -1.433594 2.003906 -1.109375 C 2.316406 -0.78125 2.753906 -0.621094 3.320312 -0.621094 C 3.605469 -0.621094 3.90625 -0.664062 4.21875 -0.757812 C 4.53125 -0.847656 4.863281 -0.984375 5.21875 -1.171875 L 5.21875 -0.277344 C 4.878906 -0.136719 4.546875 -0.0351562 4.230469 0.0351562 C 3.914062 0.105469 3.605469 0.140625 3.3125 0.140625 C 2.460938 0.140625 1.796875 -0.113281 1.320312 -0.621094 C 0.839844 -1.132812 0.601562 -1.835938 0.601562 -2.730469 C 0.601562 -3.601562 0.835938 -4.296875 1.304688 -4.820312 C 1.773438 -5.339844 2.398438 -5.601562 3.179688 -5.601562 C 3.875 -5.601562 4.425781 -5.363281 4.828125 -4.890625 C 5.230469 -4.421875 5.441406 -3.851562 5.46875 -3.183594 Z M 4.570312 -3.445312 C 4.53125 -3.824219 4.394531 -4.152344 4.15625 -4.425781 C 3.921875 -4.703125 3.582031 -4.839844 3.140625 -4.839844 C 2.707031 -4.839844 2.351562 -4.695312 2.070312 -4.410156 C 1.789062 -4.125 1.636719 -3.800781 1.609375 -3.441406 Z "/>
</g>
<g id="glyph-0-4">
<rect x="0" y="0" width="0" height="0" mask="url(#mask-0)"/>
</g>
<g id="glyph-0-5">
<path d="M 3.007812 -6.421875 L 1.96875 -2.691406 L 4.046875 -2.691406 Z M 2.414062 -7.289062 L 3.609375 -7.289062 L 5.839844 0 L 4.820312 0 L 4.28125 -1.898438 L 1.726562 -1.898438 L 1.203125 0 L 0.179688 0 Z "/>
</g>
<g id="glyph-0-6">
<path d="M 4.1875 -2.777344 C 4.1875 -3.453125 4.078125 -3.964844 3.859375 -4.3125 C 3.640625 -4.664062 3.320312 -4.839844 2.898438 -4.839844 C 2.460938 -4.839844 2.125 -4.664062 1.894531 -4.3125 C 1.664062 -3.964844 1.546875 -3.453125 1.546875 -2.777344 C 1.546875 -2.105469 1.664062 -1.589844 1.898438 -1.238281 C 2.128906 -0.882812 2.46875 -0.707031 2.910156 -0.707031 C 3.324219 -0.707031 3.640625 -0.886719 3.859375 -1.242188 C 4.078125 -1.59375 4.1875 -2.109375 4.1875 -2.777344 Z M 5.085938 -0.351562 C 5.085938 0.46875 4.894531 1.089844 4.507812 1.515625 C 4.121094 1.9375 3.550781 2.148438 2.796875 2.148438 C 2.550781 2.148438 2.292969 2.125 2.023438 2.078125 C 1.75 2.035156 1.480469 1.96875 1.210938 1.878906 L 1.210938 0.992188 C 1.53125 1.140625 1.820312 1.25 2.078125 1.324219 C 2.339844 1.394531 2.578125 1.429688 2.796875 1.429688 C 3.28125 1.429688 3.636719 1.296875 3.859375 1.035156 C 4.078125 0.773438 4.1875 0.351562 4.1875 -0.21875 L 4.1875 -0.867188 C 4.046875 -0.5625 3.851562 -0.335938 3.601562 -0.1875 C 3.355469 -0.0351562 3.054688 0.0390625 2.699219 0.0390625 C 2.0625 0.0390625 1.554688 -0.214844 1.171875 -0.726562 C 0.789062 -1.238281 0.601562 -1.921875 0.601562 -2.777344 C 0.601562 -3.636719 0.789062 -4.324219 1.171875 -4.835938 C 1.554688 -5.34375 2.0625 -5.601562 2.699219 -5.601562 C 3.050781 -5.601562 3.351562 -5.53125 3.59375 -5.390625 C 3.835938 -5.25 4.035156 -5.035156 4.1875 -4.742188 L 4.1875 -5.449219 L 5.085938 -5.449219 Z "/>
</g>
<g id="glyph-0-7">
<path d="M 5.132812 -3.390625 L 5.132812 0 L 4.226562 0 L 4.226562 -3.390625 C 4.226562 -3.882812 4.140625 -4.242188 3.96875 -4.472656 C 3.796875 -4.703125 3.527344 -4.820312 3.160156 -4.820312 C 2.738281 -4.820312 2.417969 -4.671875 2.191406 -4.371094 C 1.964844 -4.074219 1.851562 -3.648438 1.851562 -3.089844 L 1.851562 0 L 0.953125 0 L 0.953125 -5.46875 L 1.851562 -5.46875 L 1.851562 -4.648438 C 2.011719 -4.960938 2.226562 -5.199219 2.5 -5.359375 C 2.773438 -5.519531 3.097656 -5.601562 3.472656 -5.601562 C 4.027344 -5.601562 4.445312 -5.417969 4.71875 -5.050781 C 4.992188 -4.683594 5.132812 -4.132812 5.132812 -3.390625 Z "/>
</g>
<g id="glyph-0-8">
<path d="M 3 -7.023438 L 3 -5.46875 L 5.039062 -5.46875 L 5.039062 -4.769531 L 3 -4.769531 L 3 -1.800781 C 3 -1.398438 3.074219 -1.117188 3.226562 -0.957031 C 3.378906 -0.796875 3.648438 -0.71875 4.027344 -0.71875 L 5.039062 -0.71875 L 5.039062 0 L 3.941406 0 C 3.265625 0 2.792969 -0.136719 2.515625 -0.40625 C 2.238281 -0.675781 2.101562 -1.140625 2.101562 -1.800781 L 2.101562 -4.769531 L 0.640625 -4.769531 L 0.640625 -5.46875 L 2.101562 -5.46875 L 2.101562 -7.023438 Z "/>
</g>
<g id="glyph-0-9">
<path d="M 4.1875 -1.757812 C 4.039062 -1.375 3.847656 -0.875 3.617188 -0.253906 C 3.296875 0.605469 3.078125 1.128906 2.96875 1.320312 C 2.820312 1.574219 2.632812 1.761719 2.40625 1.890625 C 2.183594 2.015625 1.921875 2.078125 1.621094 2.078125 L 0.898438 2.078125 L 0.898438 1.328125 L 1.429688 1.328125 C 1.695312 1.328125 1.902344 1.25 2.050781 1.097656 C 2.199219 0.945312 2.390625 0.550781 2.621094 -0.0859375 L 0.507812 -5.46875 L 1.460938 -5.46875 L 3.082031 -1.191406 L 4.679688 -5.46875 L 5.628906 -5.46875 Z "/>
</g>
<g id="glyph-0-10">
<path d="M 1.832031 -0.6875 L 1.832031 2.078125 L 0.929688 2.078125 L 0.929688 -5.46875 L 1.832031 -5.46875 L 1.832031 -4.769531 C 1.980469 -5.039062 2.179688 -5.246094 2.429688 -5.386719 C 2.679688 -5.53125 2.964844 -5.601562 3.289062 -5.601562 C 3.953125 -5.601562 4.46875 -5.34375 4.847656 -4.835938 C 5.222656 -4.324219 5.410156 -3.613281 5.410156 -2.710938 C 5.410156 -1.820312 5.222656 -1.125 4.84375 -0.617188 C 4.464844 -0.109375 3.949219 0.140625 3.289062 0.140625 C 2.957031 0.140625 2.667969 0.0703125 2.417969 -0.0703125 C 2.171875 -0.210938 1.972656 -0.417969 1.832031 -0.6875 Z M 4.46875 -2.730469 C 4.46875 -3.425781 4.359375 -3.953125 4.136719 -4.304688 C 3.917969 -4.660156 3.59375 -4.839844 3.160156 -4.839844 C 2.722656 -4.839844 2.390625 -4.660156 2.167969 -4.304688 C 1.945312 -3.949219 1.832031 -3.421875 1.832031 -2.730469 C 1.832031 -2.039062 1.945312 -1.515625 2.167969 -1.15625 C 2.390625 -0.796875 2.722656 -0.621094 3.160156 -0.621094 C 3.59375 -0.621094 3.917969 -0.796875 4.136719 -1.152344 C 4.359375 -1.507812 4.46875 -2.03125 4.46875 -2.730469 Z "/>
</g>
<g id="glyph-0-11">
<path d="M 4.75 -5.277344 L 4.75 -4.398438 C 4.492188 -4.546875 4.234375 -4.660156 3.976562 -4.734375 C 3.714844 -4.8125 3.449219 -4.847656 3.179688 -4.847656 C 2.773438 -4.847656 2.46875 -4.78125 2.269531 -4.652344 C 2.070312 -4.519531 1.96875 -4.316406 1.96875 -4.046875 C 1.96875 -3.804688 2.042969 -3.621094 2.191406 -3.5 C 2.34375 -3.378906 2.714844 -3.261719 3.3125 -3.148438 L 3.671875 -3.082031 C 4.117188 -2.996094 4.457031 -2.828125 4.683594 -2.574219 C 4.914062 -2.320312 5.03125 -1.988281 5.03125 -1.582031 C 5.03125 -1.042969 4.835938 -0.621094 4.453125 -0.316406 C 4.070312 -0.0117188 3.535156 0.140625 2.851562 0.140625 C 2.582031 0.140625 2.296875 0.113281 2 0.0546875 C 1.703125 0 1.386719 -0.0859375 1.039062 -0.199219 L 1.039062 -1.128906 C 1.375 -0.957031 1.695312 -0.824219 2 -0.738281 C 2.308594 -0.652344 2.597656 -0.609375 2.871094 -0.609375 C 3.269531 -0.609375 3.574219 -0.691406 3.792969 -0.851562 C 4.011719 -1.011719 4.121094 -1.238281 4.121094 -1.527344 C 4.121094 -1.945312 3.722656 -2.234375 2.925781 -2.390625 L 2.886719 -2.402344 L 2.546875 -2.46875 C 2.03125 -2.570312 1.652344 -2.742188 1.414062 -2.980469 C 1.179688 -3.21875 1.058594 -3.546875 1.058594 -3.960938 C 1.058594 -4.484375 1.238281 -4.886719 1.59375 -5.171875 C 1.945312 -5.457031 2.453125 -5.601562 3.109375 -5.601562 C 3.402344 -5.601562 3.683594 -5.574219 3.953125 -5.519531 C 4.226562 -5.464844 4.492188 -5.386719 4.75 -5.277344 Z "/>
</g>
</g>
<image id="source-60" x="0" y="0" width="0" height="0"/>
<mask id="mask-0">
<use xlink:href="#source-60"/>
</mask>
</defs>
<g fill="rgb(88.627451%, 90.980392%, 94.117647%)" fill-opacity="1">
<use xlink:href="#glyph-0-0" x="30" y="29.282227"/>
<use xlink:href="#glyph-0-1" x="36" y="29.282227"/>
<use xlink:href="#glyph-0-2" x="42" y="29.282227"/>
<use xlink:href="#glyph-0-3" x="48" y="29.282227"/>
<use xlink:href="#glyph-0-3" x="54" y="29.282227"/>
<use xlink:href="#glyph-0-4" x="60" y="29.282227"/>
<use xlink:href="#glyph-0-5" x="66" y="29.282227"/>
<use xlink:href="#glyph-0-6" x="72" y="29.282227"/>
<use xlink:href="#glyph-0-3" x="78" y="29.282227"/>
<use xlink:href="#glyph-0-7" x="84" y="29.282227"/>
<use xlink:href="#glyph-0-8" x="90" y="29.282227"/>
<use xlink:href="#glyph-0-4" x="96" y="29.282227"/>
<use xlink:href="#glyph-0-0" x="102" y="29.282227"/>
<use xlink:href="#glyph-0-9" x="108" y="29.282227"/>
<use xlink:href="#glyph-0-10" x="114" y="29.282227"/>
<use xlink:href="#glyph-0-3" x="120" y="29.282227"/>
<use xlink:href="#glyph-0-11" x="126" y="29.282227"/>
</g>
</svg>
