<?xml version="1.0" encoding="UTF-8"?>
<svg xmlns="http://www.w3.org/2000/svg" xmlns:xlink="http://www.w3.org/1999/xlink" width="854" height="480" viewBox="0 0 854 480">
<defs>
<g>
<g id="glyph-0-0">
<path d="M 4.519531 -7.585938 L 2.0625 -3.742188 L 4.519531 -3.742188 Z M 4.347656 -9.71875 L 6.359375 -9.71875 L 6.359375 -3.742188 L 7.429688 -3.742188 L 7.429688 -2.097656 L 6.359375 -2.097656 L 6.359375 0 L 4.519531 0 L 4.519531 -2.097656 L 0.664062 -2.097656 L 0.664062 -3.957031 Z "/>
</g>
<g id="glyph-0-1">
<path d="M 4.785156 -7.761719 L 4.785156 -4.960938 L 7.585938 -4.960938 L 7.585938 -3.410156 L 4.785156 -3.410156 L 4.785156 -0.597656 L 3.242188 -0.597656 L 3.242188 -3.410156 L 0.429688 -3.410156 L 0.429688 -4.960938 L 3.242188 -4.960938 L 3.242188 -7.761719 Z "/>
</g>
</g>
</defs>
<g fill="rgb(6.27451%, 72.54902%, 50.588235%)" fill-opacity="1">
<use xlink:href="#glyph-0-0" x="30" y="32.375977"/>
<use xlink:href="#glyph-0-0" x="38" y="32.375977"/>
<use xlink:href="#glyph-0-1" x="46" y="32.375977"/>
</g>
</svg>
