<?xml version="1.0" encoding="UTF-8"?>
<svg xmlns="http://www.w3.org/2000/svg" xmlns:xlink="http://www.w3.org/1999/xlink" width="854" height="480" viewBox="0 0 854 480">
<defs>
<g>
<g id="glyph-0-0">
<path d="M 3.96875 -10.808594 L 3.96875 -7.003906 L 5.015625 -7.003906 C 5.855469 -7.003906 6.445312 -7.148438 6.785156 -7.429688 C 7.121094 -7.714844 7.292969 -8.207031 7.292969 -8.90625 C 7.292969 -9.605469 7.121094 -10.097656 6.785156 -10.382812 C 6.445312 -10.664062 5.855469 -10.808594 5.015625 -10.808594 Z M 1.40625 -12.960938 L 4.921875 -12.960938 C 6.710938 -12.960938 7.996094 -12.640625 8.78125 -12.003906 C 9.566406 -11.367188 9.957031 -10.335938 9.957031 -8.90625 C 9.957031 -7.476562 9.5625 -6.445312 8.78125 -5.808594 C 7.996094 -5.171875 6.710938 -4.851562 4.921875 -4.851562 L 3.96875 -4.851562 L 3.96875 0 L 1.40625 0 Z "/>
</g>
<g id="glyph-0-1">
<path d="M 9.296875 -6.3125 L 9.296875 0 L 6.769531 0 L 6.769531 -5.921875 C 6.769531 -6.621094 6.671875 -7.121094 6.472656 -7.421875 C 6.273438 -7.722656 5.945312 -7.875 5.496094 -7.875 C 5.03125 -7.875 4.671875 -7.667969 4.410156 -7.261719 C 4.148438 -6.851562 4.019531 -6.289062 4.019531 -5.5625 L 4.019531 0 L 1.492188 0 L 1.492188 -13.507812 L 4.019531 -13.507812 L 4.019531 -8.265625 C 4.199219 -8.800781 4.503906 -9.21875 4.9375 -9.511719 C 5.371094 -9.808594 5.898438 -9.957031 6.511719 -9.957031 C 7.429688 -9.957031 8.125 -9.652344 8.59375 -9.039062 C 9.0625 -8.429688 9.296875 -7.519531 9.296875 -6.3125 Z "/>
</g>
<g id="glyph-0-2">
<path d="M 6.078125 -4.566406 C 5.128906 -4.566406 4.464844 -4.445312 4.089844 -4.203125 C 3.710938 -3.957031 3.523438 -3.542969 3.523438 -2.953125 C 3.523438 -2.511719 3.65625 -2.160156 3.914062 -1.902344 C 4.175781 -1.640625 4.527344 -1.511719 4.972656 -1.511719 C 5.644531 -1.511719 6.164062 -1.761719 6.535156 -2.269531 C 6.90625 -2.777344 7.09375 -3.484375 7.09375 -4.390625 L 7.09375 -4.566406 Z M 9.617188 -5.546875 L 9.617188 0 L 7.09375 0 L 7.09375 -1.085938 C 6.785156 -0.65625 6.390625 -0.328125 5.910156 -0.09375 C 5.429688 0.136719 4.902344 0.25 4.324219 0.25 C 3.21875 0.25 2.355469 -0.0390625 1.742188 -0.625 C 1.125 -1.210938 0.816406 -2.027344 0.816406 -3.074219 C 0.816406 -4.207031 1.183594 -5.042969 1.917969 -5.585938 C 2.652344 -6.125 3.789062 -6.398438 5.328125 -6.398438 L 7.09375 -6.398438 L 7.09375 -6.824219 C 7.09375 -7.234375 6.941406 -7.542969 6.644531 -7.757812 C 6.347656 -7.96875 5.910156 -8.074219 5.328125 -8.074219 C 4.722656 -8.074219 4.132812 -7.996094 3.5625 -7.84375 C 2.992188 -7.691406 2.398438 -7.445312 1.78125 -7.109375 L 1.78125 -9.277344 C 2.339844 -9.511719 2.910156 -9.679688 3.488281 -9.792969 C 4.066406 -9.902344 4.679688 -9.957031 5.328125 -9.957031 C 6.910156 -9.957031 8.019531 -9.636719 8.660156 -8.992188 C 9.296875 -8.351562 9.617188 -7.203125 9.617188 -5.546875 Z "/>
</g>
<g id="glyph-0-3">
<path d="M 9.992188 -7.039062 C 9.714844 -7.292969 9.386719 -7.484375 9.015625 -7.613281 C 8.640625 -7.738281 8.230469 -7.804688 7.785156 -7.804688 C 7.246094 -7.804688 6.777344 -7.710938 6.375 -7.523438 C 5.972656 -7.335938 5.664062 -7.058594 5.441406 -6.703125 C 5.304688 -6.480469 5.207031 -6.214844 5.152344 -5.902344 C 5.097656 -5.589844 5.070312 -5.117188 5.070312 -4.480469 L 5.070312 0 L 2.527344 0 L 2.527344 -9.722656 L 5.070312 -9.722656 L 5.070312 -8.210938 C 5.320312 -8.765625 5.699219 -9.195312 6.214844 -9.5 C 6.730469 -9.804688 7.332031 -9.957031 8.019531 -9.957031 C 8.367188 -9.957031 8.707031 -9.914062 9.039062 -9.832031 C 9.371094 -9.746094 9.691406 -9.625 9.992188 -9.460938 Z "/>
</g>
<g id="glyph-0-4">
<path d="M 5.988281 -8.75 C 6.179688 -9.160156 6.421875 -9.464844 6.71875 -9.660156 C 7.015625 -9.859375 7.375 -9.957031 7.804688 -9.957031 C 8.644531 -9.957031 9.222656 -9.667969 9.542969 -9.089844 C 9.863281 -8.511719 10.027344 -7.304688 10.027344 -5.476562 L 10.027344 0 L 7.941406 0 L 7.941406 -6.242188 C 7.941406 -6.964844 7.886719 -7.449219 7.777344 -7.691406 C 7.667969 -7.933594 7.46875 -8.054688 7.179688 -8.054688 C 6.890625 -8.054688 6.6875 -7.929688 6.570312 -7.683594 C 6.453125 -7.433594 6.398438 -6.953125 6.398438 -6.242188 L 6.398438 0 L 4.339844 0 L 4.339844 -6.242188 C 4.339844 -6.953125 4.28125 -7.433594 4.167969 -7.683594 C 4.050781 -7.929688 3.847656 -8.054688 3.558594 -8.054688 C 3.269531 -8.054688 3.070312 -7.933594 2.960938 -7.691406 C 2.851562 -7.449219 2.796875 -6.964844 2.796875 -6.242188 L 2.796875 0 L 0.710938 0 L 0.710938 -9.722656 L 2.5625 -9.722656 L 2.5625 -8.714844 C 2.707031 -9.097656 2.9375 -9.398438 3.253906 -9.621094 C 3.574219 -9.84375 3.929688 -9.957031 4.324219 -9.957031 C 4.714844 -9.957031 5.074219 -9.839844 5.398438 -9.605469 C 5.722656 -9.371094 5.921875 -9.085938 5.988281 -8.75 Z "/>
</g>
<g id="glyph-0-5">
<path d="M 4.425781 -5.6875 C 3.136719 -6.179688 2.261719 -6.695312 1.804688 -7.234375 C 1.347656 -7.777344 1.121094 -8.503906 1.121094 -9.417969 C 1.121094 -10.59375 1.496094 -11.515625 2.25 -12.1875 C 3 -12.859375 4.035156 -13.195312 5.347656 -13.195312 C 5.941406 -13.195312 6.539062 -13.125 7.136719 -12.988281 C 7.730469 -12.855469 8.320312 -12.652344 8.90625 -12.386719 L 8.90625 -9.886719 C 8.355469 -10.273438 7.796875 -10.570312 7.230469 -10.773438 C 6.664062 -10.976562 6.101562 -11.074219 5.546875 -11.074219 C 4.925781 -11.074219 4.453125 -10.953125 4.125 -10.703125 C 3.792969 -10.453125 3.628906 -10.097656 3.628906 -9.636719 C 3.628906 -9.277344 3.75 -8.980469 3.988281 -8.746094 C 4.230469 -8.511719 4.730469 -8.253906 5.496094 -7.96875 L 6.597656 -7.550781 C 7.640625 -7.167969 8.40625 -6.664062 8.898438 -6.03125 C 9.390625 -5.402344 9.636719 -4.605469 9.636719 -3.644531 C 9.636719 -2.335938 9.25 -1.363281 8.476562 -0.714844 C 7.703125 -0.0703125 6.535156 0.25 4.972656 0.25 C 4.332031 0.25 3.6875 0.175781 3.042969 0.0234375 C 2.398438 -0.132812 1.773438 -0.359375 1.171875 -0.660156 L 1.171875 -3.308594 C 1.855469 -2.820312 2.515625 -2.460938 3.15625 -2.222656 C 3.796875 -1.984375 4.425781 -1.867188 5.050781 -1.867188 C 5.683594 -1.867188 6.171875 -2.007812 6.519531 -2.296875 C 6.867188 -2.582031 7.039062 -2.984375 7.039062 -3.5 C 7.039062 -3.886719 6.925781 -4.226562 6.691406 -4.519531 C 6.460938 -4.8125 6.125 -5.039062 5.6875 -5.207031 Z "/>
</g>
<g id="glyph-0-6">
<path d="M 1.917969 -9.722656 L 6.953125 -9.722656 L 6.953125 -1.953125 L 10.113281 -1.953125 L 10.113281 0 L 1.242188 0 L 1.242188 -1.953125 L 4.410156 -1.953125 L 4.410156 -7.769531 L 1.917969 -7.769531 Z M 4.410156 -14.453125 L 6.953125 -14.453125 L 6.953125 -11.484375 L 4.410156 -11.484375 Z "/>
</g>
</g>
</defs>
<g fill="rgb(88.627451%, 90.980392%, 94.117647%)" fill-opacity="1">
<use xlink:href="#glyph-0-0" x="30" y="36.500977"/>
<use xlink:href="#glyph-0-1" x="41" y="36.500977"/>
<use xlink:href="#glyph-0-2" x="52" y="36.500977"/>
<use xlink:href="#glyph-0-3" x="63" y="36.500977"/>
<use xlink:href="#glyph-0-4" x="74" y="36.500977"/>
<use xlink:href="#glyph-0-2" x="85" y="36.500977"/>
<use xlink:href="#glyph-0-5" x="96" y="36.500977"/>
<use xlink:href="#glyph-0-6" x="107" y="36.500977"/>
<use xlink:href="#glyph-0-4" x="118" y="36.500977"/>
</g>
</svg>
